HIERARCHY
ROOT Hips
{
  OFFSET 5.72205e-005 65.662 3.42586
  CHANNELS 6 Xposition Yposition Zposition Zrotation Xrotation Yrotation
  JOINT Chest
  {
    OFFSET 0 8.7983 -4.7612
    CHANNELS 3 Zrotation Xrotation Yrotation
    JOINT Chest2
    {
      OFFSET 0 8.0291 0.4195
      CHANNELS 3 Zrotation Xrotation Yrotation
      JOINT Chest3
      {
        OFFSET 0 9.9351 -2.2114
        CHANNELS 3 Zrotation Xrotation Yrotation
        JOINT Neck
        {
          OFFSET 0 22.3885 -0.4656
          CHANNELS 3 Zrotation Xrotation Yrotation
          JOINT Head
          {
            OFFSET -0.0001 12.643 3.4389
            CHANNELS 3 Zrotation Xrotation Yrotation
            End Site
            {
              OFFSET 0.0001 17.6655 0.5274
            }
          }
        }
        JOINT LeftCollar
        {
          OFFSET 2.2603 21.606 7.4023
          CHANNELS 3 Zrotation Xrotation Yrotation
          JOINT LeftShoulder
          {
            OFFSET 13.5163 -1.1332 -5.0146
            CHANNELS 3 Zrotation Xrotation Yrotation
            JOINT LeftElbow
            {
              OFFSET -0.0995 -28.05 -0.2431
              CHANNELS 3 Zrotation Xrotation Yrotation
              JOINT LeftWrist
              {
                OFFSET 0.0679 -23.3996 -0.1402
                CHANNELS 3 Zrotation Xrotation Yrotation
                JOINT LeftFinger1
                {
                  OFFSET 0.7932 -9.069 2.5189
                  CHANNELS 3 Zrotation Xrotation Yrotation
                  JOINT LeftFinger11
                  {
                    OFFSET -0.8272 -3.3923 0.5977
                    CHANNELS 3 Zrotation Xrotation Yrotation
                    JOINT LeftFinger12
                    {
                      OFFSET -0.5649 -2.3158 0.4082
                      CHANNELS 3 Zrotation Xrotation Yrotation
                      End Site
                      {
                        OFFSET -0.4919 -1.6479 0.2673
                      }
                    }
                  }
                }
                JOINT LeftFinger2
                {
                  OFFSET 0.9159 -9.2044 0.2193
                  CHANNELS 3 Zrotation Xrotation Yrotation
                  JOINT LeftFinger21
                  {
                    OFFSET 0.0117 -4.1944 -0.0248
                    CHANNELS 3 Zrotation Xrotation Yrotation
                    JOINT LeftFinger22
                    {
                      OFFSET 0.0071 -2.3249 -0.0142
                      CHANNELS 3 Zrotation Xrotation Yrotation
                      End Site
                      {
                        OFFSET -0.1475 -2.0882 0.0028
                      }
                    }
                  }
                }
                JOINT LeftFinger3
                {
                  OFFSET 0.6113 -8.7231 -2.0637
                  CHANNELS 3 Zrotation Xrotation Yrotation
                  JOINT LeftFinger31
                  {
                    OFFSET -0.1927 -3.8059 -0.2383
                    CHANNELS 3 Zrotation Xrotation Yrotation
                    JOINT LeftFinger32
                    {
                      OFFSET -0.1091 -2.1688 -0.1362
                      CHANNELS 3 Zrotation Xrotation Yrotation
                      End Site
                      {
                        OFFSET -0.2358 -1.9176 -0.0906
                      }
                    }
                  }
                }
                JOINT LeftFinger4
                {
                  OFFSET -0.6151 -8.0947 -3.5641
                  CHANNELS 3 Zrotation Xrotation Yrotation
                  JOINT LeftFinger41
                  {
                    OFFSET -0.4882 -2.341 -0.6462
                    CHANNELS 3 Zrotation Xrotation Yrotation
                    JOINT LeftFinger42
                    {
                      OFFSET -0.3575 -1.7167 -0.4742
                      CHANNELS 3 Zrotation Xrotation Yrotation
                      End Site
                      {
                        OFFSET -0.4187 -1.5237 -0.3496
                      }
                    }
                  }
                }
                JOINT LeftFinger0
                {
                  OFFSET -1.42 -1.8761 1.4223
                  CHANNELS 3 Zrotation Xrotation Yrotation
                  JOINT LeftFinger01
                  {
                    OFFSET -1.1471 -3.4929 2.6334
                    CHANNELS 3 Zrotation Xrotation Yrotation
                    JOINT LeftFinger02
                    {
                      OFFSET -0.823 -2.3 1.6571
                      CHANNELS 3 Zrotation Xrotation Yrotation
                      End Site
                      {
                        OFFSET -0.5822 -1.6914 1.1582
                      }
                    }
                  }
                }
              }
            }
          }
        }
        JOINT RightCollar
        {
          OFFSET -2.2603 21.606 7.4023
          CHANNELS 3 Zrotation Xrotation Yrotation
          JOINT RightShoulder
          {
            OFFSET -13.5187 -1.1334 -5.0155
            CHANNELS 3 Zrotation Xrotation Yrotation
            JOINT RightElbow
            {
              OFFSET 0.0994 -28.0499 -0.2431
              CHANNELS 3 Zrotation Xrotation Yrotation
              JOINT RightWrist
              {
                OFFSET -0.0679 -23.3996 -0.1402
                CHANNELS 3 Zrotation Xrotation Yrotation
                JOINT RightFinger1
                {
                  OFFSET -0.7932 -9.0691 2.5189
                  CHANNELS 3 Zrotation Xrotation Yrotation
                  JOINT RightFinger11
                  {
                    OFFSET 0.8272 -3.3923 0.5977
                    CHANNELS 3 Zrotation Xrotation Yrotation
                    JOINT RightFinger12
                    {
                      OFFSET 0.565 -2.3158 0.4082
                      CHANNELS 3 Zrotation Xrotation Yrotation
                      End Site
                      {
                        OFFSET 0.4919 -1.6479 0.2673
                      }
                    }
                  }
                }
                JOINT RightFinger2
                {
                  OFFSET -0.916 -9.2044 0.2193
                  CHANNELS 3 Zrotation Xrotation Yrotation
                  JOINT RightFinger21
                  {
                    OFFSET -0.0117 -4.1944 -0.0248
                    CHANNELS 3 Zrotation Xrotation Yrotation
                    JOINT RightFinger22
                    {
                      OFFSET -0.0071 -2.3249 -0.0142
                      CHANNELS 3 Zrotation Xrotation Yrotation
                      End Site
                      {
                        OFFSET 0.1475 -2.0882 0.0028
                      }
                    }
                  }
                }
                JOINT RightFinger3
                {
                  OFFSET -0.6113 -8.7231 -2.0637
                  CHANNELS 3 Zrotation Xrotation Yrotation
                  JOINT RightFinger31
                  {
                    OFFSET 0.1927 -3.8059 -0.2383
                    CHANNELS 3 Zrotation Xrotation Yrotation
                    JOINT RightFinger32
                    {
                      OFFSET 0.1091 -2.1688 -0.1362
                      CHANNELS 3 Zrotation Xrotation Yrotation
                      End Site
                      {
                        OFFSET 0.2358 -1.9176 -0.0906
                      }
                    }
                  }
                }
                JOINT RightFinger4
                {
                  OFFSET 0.6151 -8.0947 -3.564
                  CHANNELS 3 Zrotation Xrotation Yrotation
                  JOINT RightFinger41
                  {
                    OFFSET 0.4882 -2.341 -0.6462
                    CHANNELS 3 Zrotation Xrotation Yrotation
                    JOINT RightFinger42
                    {
                      OFFSET 0.3574 -1.7166 -0.4742
                      CHANNELS 3 Zrotation Xrotation Yrotation
                      End Site
                      {
                        OFFSET 0.4187 -1.5237 -0.3496
                      }
                    }
                  }
                }
                JOINT RightFinger0
                {
                  OFFSET 1.4199 -1.8761 1.4221
                  CHANNELS 3 Zrotation Xrotation Yrotation
                  JOINT RightFinger01
                  {
                    OFFSET 1.1472 -3.4929 2.6336
                    CHANNELS 3 Zrotation Xrotation Yrotation
                    JOINT RightFinger02
                    {
                      OFFSET 0.8229 -2.3 1.6571
                      CHANNELS 3 Zrotation Xrotation Yrotation
                      End Site
                      {
                        OFFSET 0.5822 -1.6914 1.1582
                      }
                    }
                  }
                }
              }
            }
          }
        }
      }
    }
  }
  JOINT RightHip
  {
    OFFSET -9.412 3.9771 -0.7758
    CHANNELS 3 Zrotation Xrotation Yrotation
    JOINT RightKnee
    {
      OFFSET -0.7531 -40.938 0
      CHANNELS 3 Zrotation Xrotation Yrotation
      JOINT RightAnkle
      {
        OFFSET 0 -40.1986 0
        CHANNELS 3 Zrotation Xrotation Yrotation
        JOINT RightToe
        {
          OFFSET 0 -4.4182 9.239
          CHANNELS 3 Zrotation Xrotation Yrotation
          End Site
          {
            OFFSET 0 0 6.1981
          }
        }
      }
    }
  }
  JOINT LeftHip
  {
    OFFSET 9.4119 3.9773 -0.7758
    CHANNELS 3 Zrotation Xrotation Yrotation
    JOINT LeftKnee
    {
      OFFSET 0.7532 -40.9383 0
      CHANNELS 3 Zrotation Xrotation Yrotation
      JOINT LeftAnkle
      {
        OFFSET 0 -40.1986 0
        CHANNELS 3 Zrotation Xrotation Yrotation
        JOINT LeftToe
        {
          OFFSET 0 -4.4182 9.239
          CHANNELS 3 Zrotation Xrotation Yrotation
          End Site
          {
            OFFSET 0 0 6.1981
          }
        }
      }
    }
  }
}
MOTION
Frames:	4
Frame Time:	0.0333333
29.5591 11.7695 0.496473 90.0018 -4.00327 90.0018 1.95199 2.98141 0.409134 3.8905 5.97458 0.717706 3.89051 5.97499 0.717697 -1.10907e-005 27.9975 -1.09618e-005 -7.39731e-006 15.997 1.01968e-005 -1.27717e-005 1.70643e-006 -12.5014 11.1748 18.0858 3.25643 -2.78988 -43.3959 -20.1665 -9.42153 0.0758056 36.2619 -3.60035e-006 -2.9471e-005 -1.24102e-006 3.97569e-016 1.2424e-016 -0 1.59028e-015 1.71452e-015 -7.95139e-016 -3.60035e-006 -2.9471e-005 -1.24102e-006 -0.0127986 0.00225097 8.74603e-005 1.19271e-015 -8.44835e-016 -0 -3.60035e-006 -2.9471e-005 -1.24102e-006 -0.016053 0.00291448 0.000870533 7.95139e-016 -7.15625e-015 -7.95139e-016 -3.60035e-006 -2.9471e-005 -1.24102e-006 -0.012579 0.00312152 0.00282244 3.97569e-016 4.96962e-016 7.95139e-016 -3.60035e-006 -2.9471e-005 -1.24102e-006 3.97569e-016 1.2424e-016 -0 1.59028e-015 1.71452e-015 -7.95139e-016 -0.878584 -9.83524 6.88599 -98.1104 -34.2626 -66.125 171.609 -52.4075 151.144 -7.27935 -16.4865 -0.0143997 2.61462e-006 -1.74185e-005 -1.64072e-006 -5.00393e-006 1.14922e-005 9.40346e-006 9.88038e-006 -1.53871e-005 -3.54304e-006 2.61462e-006 -1.74185e-005 -1.64072e-006 0.0129615 0.0023291 -9.35764e-005 -6.6278e-006 -3.41725e-006 3.39985e-006 2.61462e-006 -1.74185e-005 -1.64072e-006 0.0163084 0.00303921 -0.000868494 3.25015e-006 -8.55187e-006 -1.42634e-007 2.61462e-006 -1.74185e-005 -1.64072e-006 0.0145488 0.00368512 -0.0032508 -5.99034e-006 -4.09345e-006 4.89747e-006 2.61462e-006 -1.74185e-005 -1.64072e-006 -5.00393e-006 1.14922e-005 9.40346e-006 9.88038e-006 -1.53871e-005 -3.54304e-006 -19.0231 -28.1291 -24.661 -179.998 81.5702 177.535 -2.45482 17.0157 -1.27613 5.72495e-007 -1.2083e-006 -1.87058e-006 12.6417 -26.6271 7.97118 -0.189502 69.1307 11.9428 7.79661 38.4682 -3.59971 1.94626e-006 -2.19126e-008 1.42166e-006 
29.5592 11.7701 0.495075 90.0018 -4.00327 90.0018 1.95199 2.98141 0.409134 3.8905 5.97458 0.717706 3.89051 5.97499 0.717697 -1.10907e-005 27.9975 -1.09618e-005 -7.39731e-006 15.997 1.01968e-005 -1.27717e-005 1.70643e-006 -12.5014 11.1748 18.0857 3.25643 -2.92882 -43.139 -20.2734 -9.84408 0.0699196 35.1653 -1.19271e-015 8.69683e-015 -3.97569e-016 -3.59066e-006 -3.89135e-005 -1.27811e-006 7.95139e-016 2.98177e-016 -7.95139e-016 -1.19271e-015 8.69683e-015 -3.97569e-016 -0.0128302 0.00203107 8.71313e-005 -3.38629e-031 -2.44008e-014 -7.95139e-016 -1.19271e-015 8.69683e-015 -3.97569e-016 -0.0160463 0.00283744 0.000867716 -2.63721e-007 1.81612e-005 -3.17546e-006 -1.19271e-015 8.69683e-015 -3.97569e-016 -0.0125742 0.00302316 0.00283016 7.34502e-032 3.52843e-015 -1.19271e-015 -1.19271e-015 8.69683e-015 -3.97569e-016 -3.59066e-006 -3.89135e-005 -1.27811e-006 7.95139e-016 2.98177e-016 -7.95139e-016 -0.878584 -9.83524 6.88599 -98.1104 -34.2626 -66.125 171.577 -52.3928 150.71 -7.27934 -16.4865 -0.0143688 7.98664e-006 -1.18226e-005 -7.9754e-006 4.2335e-006 -2.3735e-006 4.35947e-006 2.95894e-006 -6.03981e-007 1.35575e-006 7.98664e-006 -1.18226e-005 -7.9754e-006 0.0129325 0.00233137 -8.73085e-005 4.31115e-006 -5.47046e-006 -3.23659e-006 7.98664e-006 -1.18226e-005 -7.9754e-006 0.016308 0.00303166 -0.000868463 -6.36111e-015 6.16232e-015 -3.18055e-015 7.98664e-006 -1.18226e-005 -7.9754e-006 0.0145712 0.00367783 -0.00325494 -4.94816e-006 7.50368e-006 1.73433e-006 7.98664e-006 -1.18226e-005 -7.9754e-006 4.2335e-006 -2.3735e-006 4.35947e-006 2.95894e-006 -6.03981e-007 1.35575e-006 -18.5535 -28.3677 -24.105 -179.998 81.5614 177.532 -2.45822 17.0058 -1.27832 3.18055e-015 -2.46031e-006 3.18055e-015 12.6647 -26.6245 7.97282 -0.210035 69.2322 11.6733 7.8408 38.4654 -3.6125 4.40471e-007 -3.70803e-006 -9.49577e-007 
29.5592 11.7705 0.49393 90.0018 -4.00327 90.0018 1.95199 2.98141 0.409134 3.8905 5.97458 0.717706 3.89051 5.97499 0.717697 -1.10907e-005 27.9975 -1.09618e-005 -7.39731e-006 15.997 1.01968e-005 -1.27717e-005 1.70643e-006 -12.5014 11.1748 18.0857 3.25644 -3.04044 -42.9301 -20.3589 -10.1889 0.0728568 34.2709 6.647e-006 8.42786e-005 -3.84967e-006 -1.58625e-032 -2.28602e-015 -3.97569e-016 -3.97569e-016 -1.46604e-015 -0 6.647e-006 8.42786e-005 -3.84967e-006 -0.0128068 0.00233326 8.48188e-005 -7.95139e-016 7.1314e-015 -3.97569e-016 6.647e-006 8.42786e-005 -3.84967e-006 -0.0160358 0.00299215 0.0008698 -3.48285e-032 5.01931e-015 3.97569e-016 6.647e-006 8.42786e-005 -3.84967e-006 -0.0126051 0.00280408 0.00282104 7.55382e-015 -1.05604e-015 1.07344e-014 6.647e-006 8.42786e-005 -3.84967e-006 -1.58625e-032 -2.28602e-015 -3.97569e-016 -3.97569e-016 -1.46604e-015 -0 -0.878584 -9.83524 6.88599 -98.1104 -34.2626 -66.125 171.552 -52.3808 150.358 -7.27936 -16.4865 -0.0143099 3.18055e-015 -5.96354e-015 -2.78299e-015 1.04467e-006 3.45205e-006 -3.16878e-006 -6.36111e-015 2.38542e-015 2.78299e-015 3.18055e-015 -5.96354e-015 -2.78299e-015 0.0129217 0.00232332 -9.1462e-005 -6.36736e-007 1.68591e-006 -1.50513e-006 3.18055e-015 -5.96354e-015 -2.78299e-015 0.0163581 0.00303583 -0.000870222 -6.36111e-015 -3.18055e-015 5.96354e-015 3.18055e-015 -5.96354e-015 -2.78299e-015 0.0145216 0.00366742 -0.00324396 -9.54166e-015 -7.95139e-016 6.75868e-015 3.18055e-015 -5.96354e-015 -2.78299e-015 1.04467e-006 3.45205e-006 -3.16878e-006 -6.36111e-015 2.38542e-015 2.78299e-015 -18.1691 -28.5584 -23.6498 -179.999 81.5542 177.529 -2.46096 16.9979 -1.28016 6.04044e-007 -1.57082e-006 -6.64537e-006 12.6835 -26.6221 7.97419 -0.226324 69.3144 11.4538 7.87677 38.4633 -3.62291 7.30539e-007 1.07139e-005 1.34348e-005 
29.5592 11.7709 0.492768 90.0018 -4.00327 90.0018 1.95199 2.98141 0.409134 3.8905 5.97458 0.717706 3.89051 5.97499 0.717697 -1.10907e-005 27.9975 -1.09618e-005 -7.39731e-006 15.997 1.01968e-005 -1.27717e-005 1.70643e-006 -12.5014 11.1748 18.0858 3.25646 -3.15121 -42.721 -20.4436 -10.5347 0.0811356 33.3741 -1.60879e-006 2.60922e-005 -1.52746e-005 -8.5771e-006 -9.57161e-005 -1.62504e-005 7.95139e-016 3.78933e-016 3.97569e-016 -1.60879e-006 2.60922e-005 -1.52746e-005 -0.0128204 0.00240553 7.39348e-005 -4.31445e-006 -0.000130196 -6.63949e-006 -1.60879e-006 2.60922e-005 -1.52746e-005 -0.0160322 0.0028716 0.000855371 -3.97569e-016 3.75206e-015 -0 -1.60879e-006 2.60922e-005 -1.52746e-005 -0.0125846 0.00302637 0.00281321 -1.98785e-016 -1.11816e-016 -1.98785e-016 -1.60879e-006 2.60922e-005 -1.52746e-005 -8.5771e-006 -9.57161e-005 -1.62504e-005 7.95139e-016 3.78933e-016 3.97569e-016 -0.878584 -9.83524 6.88599 -98.1104 -34.2626 -66.125 171.527 -52.3686 150.006 -7.27936 -16.4865 -0.0143299 1.10348e-032 -3.97569e-016 1.59028e-015 3.48582e-006 1.14933e-005 1.03829e-005 2.41783e-006 -1.2087e-005 -7.70847e-006 1.10348e-032 -3.97569e-016 1.59028e-015 0.0129522 0.00233061 -7.00052e-005 5.59927e-006 -1.75158e-005 -1.66779e-007 1.10348e-032 -3.97569e-016 1.59028e-015 0.01632 0.0030377 -0.000853875 -2.97939e-031 4.77083e-015 3.57812e-015 1.10348e-032 -3.97569e-016 1.59028e-015 0.014622 0.00369556 -0.00326341 6.33708e-006 -1.32397e-005 -6.1951e-006 1.10348e-032 -3.97569e-016 1.59028e-015 3.48582e-006 1.14933e-005 1.03829e-005 2.41783e-006 -1.2087e-005 -7.70847e-006 -17.7822 -28.7461 -23.1922 -179.999 81.5473 177.526 -2.46372 16.9902 -1.28199 0 6.36111e-015 -0 12.7023 -26.6198 7.97552 -0.241821 69.3967 11.2336 7.91279 38.4614 -3.63333 1.66767e-006 1.08379e-005 1.56076e-006 
